<?xml version="1.0" encoding="UTF-8" standalone="no"?>
<svg width="339px" height="145px" viewBox="0 0 339 145" version="1.1" xmlns="http://www.w3.org/2000/svg" xmlns:xlink="http://www.w3.org/1999/xlink" xmlns:sketch="http://www.bohemiancoding.com/sketch/ns">
    <!-- Generator: Sketch 3.3.2 (12043) - http://www.bohemiancoding.com/sketch -->
    <title>Logo</title>
    <desc>Created with Sketch.</desc>
    <defs></defs>
    <g id="Page-1" stroke="none" stroke-width="1" fill="none" fill-rule="evenodd" sketch:type="MSPage">
        <g id="Desktop-HD" sketch:type="MSArtboardGroup" transform="translate(-551.000000, -151.000000)" fill="#FFFFFF">
            <g id="Logo" sketch:type="MSLayerGroup" transform="translate(551.000000, 151.000000)">
                <path d="M211.299834,41.9249413 L173.51291,83.8503501 C172.707535,84.7445623 171.370801,84.8000651 170.530111,83.9710931 L167.123532,80.6113867 C176.760571,71.135009 201.438153,47.2110177 190.475498,37.1367674 C177.57216,25.279935 151.46596,34.984491 180.041586,9.8157433 L180.020658,9.79594405 C180.039624,9.77841684 180.057281,9.76024047 180.076573,9.74238868 C185.365631,4.83444555 194.035108,5.38914926 199.576601,10.8543927 C204.920593,16.1242403 205.605637,24.2422593 201.171984,29.4780262 L211.115085,39.2848242 C211.864219,40.024862 211.948582,41.2056765 211.299834,41.9249413 L211.299834,41.9249413 Z M197.091153,13.4588062 C193.315731,9.73459881 187.516569,9.26168875 183.77123,12.3172655 L198.232347,26.5792205 C201.338095,22.8946117 200.865595,17.1820398 197.091153,13.4588062 L197.091153,13.4588062 Z M151.784775,35.7225813 C156.928649,50.4217427 196.147788,36.4863132 157.064677,70.6909864 L126.595454,40.6399372 C125.755091,39.8109651 125.81166,38.4925295 126.718075,37.6982872 L169.227057,0.430571971 C169.956244,-0.209171162 171.154007,-0.126079208 171.904121,0.613633933 L173.406639,2.09533226 C169.771168,4.84905156 147.357008,23.0705329 151.784775,35.7225813 L151.784775,35.7225813 Z" id="Shape" sketch:type="MSShapeGroup"></path>
                <path d="M45.4791467,123.807301 C44.6521394,122.994989 43.7082253,122.32642 42.6454801,121.802548 C41.5832159,121.278199 40.4973779,120.822616 39.3894095,120.433891 C38.2819221,120.045166 37.1965653,119.693212 36.1343011,119.376596 C35.0715558,119.060936 34.1271606,118.712325 33.3006345,118.332673 C32.4741083,117.953499 31.8068255,117.502214 31.298305,116.977865 C30.7897845,116.453993 30.5357648,115.794497 30.5357648,114.999854 C30.5357648,113.752495 30.9576877,112.76349 31.8024956,112.031884 C32.6473035,111.300278 33.9318349,110.934475 35.6575331,110.934475 C36.6558112,110.934475 37.5458423,111.065801 38.3271453,111.327021 C39.1074861,111.589195 39.8021915,111.883366 40.4112614,112.208577 C41.0198503,112.533788 41.563972,112.827481 42.0460321,113.089179 C42.5266489,113.351353 42.9769565,113.482202 43.3945495,113.482202 C43.8665065,113.482202 44.2528282,113.373798 44.5525521,113.157468 C44.8522761,112.940661 45.1385294,112.615449 45.4103497,112.181834 L47.6989324,107.926868 C46.9902752,107.276445 46.1868417,106.693357 45.2881508,106.178559 C44.3889789,105.66376 43.421491,105.221549 42.3866494,104.850493 C41.3513267,104.48087 40.256829,104.200548 39.1041184,104.010006 C37.9504457,103.820419 36.7655015,103.725387 35.5488049,103.725387 C33.3689504,103.725387 31.4349368,104.054896 29.7458021,104.714869 C28.0566673,105.374843 26.6306932,106.255444 25.4683606,107.357151 C24.3060281,108.459336 23.4251379,109.715291 22.826171,111.12454 C22.226723,112.534266 21.926999,113.979331 21.926999,115.461167 C21.926999,117.303554 22.1810187,118.85368 22.6895392,120.10868 C23.1980596,121.364635 23.8653424,122.412379 24.6918686,123.252866 C25.5183948,124.093353 26.457979,124.770519 27.5115834,125.285795 C28.5647067,125.800593 29.6457337,126.233731 30.7537022,126.587117 C31.8611895,126.939071 32.9417354,127.260462 33.9958209,127.548902 C35.0489442,127.83782 35.9885284,128.172582 36.8155357,128.551756 C37.6415808,128.931408 38.3093447,129.41039 38.8178652,129.988225 C39.3259046,130.566538 39.5804053,131.315813 39.5804053,132.238439 C39.5804053,133.828679 39.1175892,134.989124 38.1909946,135.72073 C37.2648812,136.452336 35.9659168,136.818617 34.2955449,136.818617 C33.0600855,136.818617 31.9886805,136.647177 31.0803676,136.303341 C30.1720548,135.959983 29.3686213,135.580331 28.6695861,135.16534 C27.9705508,134.75035 27.3436803,134.370698 26.7899366,134.02734 C26.2357118,133.684459 25.6867791,133.512064 25.1416952,133.512064 C24.7236211,133.512064 24.3329696,133.611394 23.9702218,133.810055 C23.6065118,134.009193 23.3255506,134.271367 23.125895,134.596101 L20.4014376,138.878288 C21.1822594,139.655739 22.0997131,140.360125 23.1528364,140.9924 C24.2054787,141.625631 25.3322099,142.172425 26.5306248,142.632305 C27.7295208,143.094096 28.9693101,143.450825 30.2490305,143.703449 C31.5297131,143.956073 32.7868219,144.082623 34.0222813,144.082623 C36.2743006,144.082623 38.2857709,143.744518 40.0566923,143.066398 C41.8276136,142.389233 43.3161305,141.458966 44.5246485,140.274166 C45.7326853,139.091753 46.6539878,137.704949 47.2895181,136.114709 C47.9250484,134.523991 48.2430541,132.817229 48.2430541,130.991079 C48.2430541,129.347831 47.9885533,127.942403 47.480514,126.77766 C46.9729557,125.610051 46.3051918,124.621046 45.4791467,123.807301 L45.4791467,123.807301 Z M77.1758008,127.547947 C77.1758008,128.939526 76.9987567,130.181633 76.6446687,131.274266 C76.2910617,132.368332 75.7772492,133.294301 75.1056365,134.05265 C74.4340238,134.811954 73.6113464,135.395042 72.6400098,135.800959 C71.6677109,136.207831 70.5650345,136.409834 69.3300562,136.409834 C68.0945968,136.409834 66.9909582,136.207353 66.0201026,135.800959 C65.0478038,135.394564 64.2260886,134.807178 63.5544759,134.039278 C62.8828632,133.270901 62.3695318,132.341112 62.0154437,131.247046 C61.6613557,130.15489 61.4843116,128.911829 61.4843116,127.520249 L61.4843116,104.158047 L52.2760978,104.158047 L52.2760978,127.547947 C52.2760978,129.969601 52.6662682,132.192594 53.4475712,134.215017 C54.227912,136.239827 55.3541622,137.982405 56.8253596,139.446095 C58.296557,140.909307 60.0852789,142.047785 62.1924878,142.861052 C64.2987344,143.673841 66.6782446,144.080713 69.3300562,144.080713 C71.963105,144.080713 74.3329933,143.673841 76.4406832,142.861052 C78.5469298,142.047785 80.3361329,140.909307 81.8068491,139.446095 C83.2785276,137.982405 84.4086266,136.239827 85.1990704,134.215017 C85.9895143,132.192594 86.3844957,129.969601 86.3844957,127.547947 L86.3844957,104.158047 L77.1758008,104.158047 L77.1758008,127.547947 L77.1758008,127.547947 Z M118.543966,107.871472 C117.245483,106.714847 115.59243,105.807025 113.58529,105.147529 C111.578149,104.488988 109.176509,104.158524 106.379887,104.158524 L92.3770511,104.158524 L92.3770511,143.646621 L101.585265,143.646621 L101.585265,130.447628 L106.379887,130.447628 C109.121664,130.447628 111.496363,130.118596 113.503503,129.458623 C115.510644,128.800082 117.168026,127.882709 118.476131,126.70746 C119.784236,125.533165 120.754611,124.124872 121.391103,122.479236 C122.027115,120.83551 122.344639,119.028463 122.344639,117.059048 C122.344639,115.233854 122.035293,113.535687 121.418045,111.963594 C120.800796,110.391501 119.842449,109.028097 118.543966,107.871472 L118.543966,107.871472 Z M111.5565,121.828813 C110.502414,122.967769 108.777197,123.537008 106.379887,123.537008 L101.585265,123.537008 L101.585265,111.014703 L106.379887,111.014703 C107.542219,111.014703 108.545789,111.159878 109.390597,111.448318 C110.234443,111.737713 110.933478,112.148884 111.487703,112.681829 C112.041928,113.214774 112.45471,113.852303 112.727011,114.592027 C112.999313,115.333184 113.135944,116.155524 113.135944,117.059048 C113.135944,119.10105 112.610104,120.690813 111.5565,121.828813 L111.5565,121.828813 Z M127.13878,143.646621 L152.692295,143.646621 L152.692295,136.599899 L136.400877,136.599899 L136.400877,127.195993 L148.878632,127.195993 L148.878632,120.420042 L136.400877,120.420042 L136.400877,111.205246 L152.692295,111.205246 L152.692295,104.158524 L127.13878,104.158524 L127.13878,143.646621 L127.13878,143.646621 Z M180.548344,128.252333 C180.01192,127.801526 179.436046,127.421874 178.818316,127.114332 C180.107659,126.626276 181.246417,126.002119 182.237479,125.24377 C183.226135,124.484467 184.062283,123.622012 184.742556,122.655452 C185.424753,121.689369 185.937603,120.63685 186.28255,119.498371 C186.627497,118.359893 186.800212,117.149783 186.800212,115.866607 C186.800212,114.18611 186.509147,112.632641 185.928462,111.204768 C185.346815,109.77785 184.415409,108.539564 183.135689,107.492298 C181.855006,106.444554 180.201954,105.626511 178.177975,105.039125 C176.152072,104.452217 173.705208,104.158047 170.835459,104.158047 L157.921829,104.158047 L157.921829,143.646143 L167.130524,143.646143 L167.130524,129.038379 L169.47299,129.038379 C170.181647,129.038379 170.730098,129.146305 171.122193,129.363591 C171.512364,129.580398 171.851538,129.941903 172.143564,130.447628 L178.735567,141.912161 C179.408142,143.069263 180.516111,143.646621 182.059954,143.646621 L190.395456,143.646621 L181.949783,129.906087 C181.551915,129.255187 181.082844,128.70505 180.548344,128.252333 L180.548344,128.252333 Z M177.427462,118.969724 C177.173924,119.719477 176.76499,120.375152 176.202106,120.934841 C175.639221,121.495006 174.917575,121.933397 174.036203,122.249057 C173.155794,122.565672 172.0892,122.724219 170.83594,122.724219 L167.131005,122.724219 L167.131005,111.015181 L170.83594,111.015181 C173.214007,111.015181 174.97242,111.503236 176.10733,112.478393 C177.24224,113.454504 177.809935,114.80979 177.809935,116.54425 C177.809935,117.411957 177.682444,118.220449 177.427462,118.969724 L177.427462,118.969724 Z M216.344915,123.807301 C215.517907,122.994989 214.574474,122.32642 213.511729,121.802548 C212.448984,121.278199 211.363627,120.822616 210.255659,120.433891 C209.146728,120.045166 208.062333,119.693212 206.999588,119.376596 C205.936843,119.060936 204.992448,118.712325 204.166402,118.332673 C203.339395,117.953499 202.672594,117.502214 202.165035,116.977865 C201.655553,116.453993 201.402014,115.794497 201.402014,114.999854 C201.402014,113.752495 201.823937,112.76349 202.668745,112.031884 C203.51259,111.300278 204.797122,110.934475 206.524263,110.934475 C207.52206,110.934475 208.412091,111.065801 209.192913,111.327021 C209.974697,111.589195 210.66796,111.883366 211.277992,112.208577 C211.886099,112.533788 212.430702,112.827481 212.9118,113.089179 C213.392898,113.351353 213.842243,113.482202 214.259355,113.482202 C214.731793,113.482202 215.118115,113.373798 215.417839,113.157468 C215.717563,112.940661 216.004297,112.615449 216.276599,112.181834 L218.5647,107.926868 C217.856043,107.276445 217.051648,106.693357 216.153438,106.178559 C215.254266,105.66376 214.287259,105.221549 213.251936,104.850493 C212.217576,104.48087 211.122597,104.200548 209.969886,104.010006 C208.816214,103.820419 207.630307,103.725387 206.414092,103.725387 C204.235199,103.725387 202.301186,104.054896 200.61157,104.714869 C198.921954,105.374843 197.495499,106.255444 196.334129,107.357151 C195.170834,108.459336 194.290425,109.715291 193.690977,111.12454 C193.092491,112.534266 192.792767,113.979331 192.792767,115.461167 C192.792767,117.303554 193.046306,118.85368 193.555788,120.10868 C194.064309,121.364635 194.73111,122.412379 195.557156,123.252866 C196.384163,124.093353 197.323747,124.770519 198.37687,125.285795 C199.429994,125.800593 200.511021,126.233731 201.618508,126.587117 C202.726476,126.939071 203.807985,127.260462 204.861108,127.548902 C205.91375,127.83782 206.854296,128.172582 207.67986,128.551756 C208.506868,128.931408 209.173669,129.41039 209.683152,129.988225 C210.19071,130.566538 210.446173,131.315813 210.446173,132.238439 C210.446173,133.828679 209.982876,134.989124 209.056282,135.72073 C208.128725,136.452336 206.830242,136.818617 205.160351,136.818617 C203.924891,136.818617 202.852524,136.647177 201.944692,136.303341 C201.035898,135.959983 200.232465,135.580331 199.534392,135.16534 C198.834394,134.75035 198.207524,134.370698 197.654261,134.02734 C197.100999,133.684459 196.551104,133.512064 196.00602,133.512064 C195.586984,133.512064 195.197775,133.611394 194.834065,133.810055 C194.471318,134.009193 194.189394,134.271367 193.989258,134.596101 L191.265281,138.878288 C192.046103,139.655739 192.964038,140.360125 194.017642,140.9924 C195.070766,141.625631 196.195572,142.172425 197.395431,142.632305 C198.593364,143.094096 199.833635,143.450825 201.113836,143.703449 C202.394519,143.956073 203.651628,144.082623 204.886606,144.082623 C207.139106,144.082623 209.150577,143.744518 210.921017,143.066398 C212.691457,142.389233 214.180455,141.458966 215.388973,140.274166 C216.596529,139.091753 217.518313,137.704949 218.154324,136.114709 C218.789373,134.523991 219.10786,132.817229 219.10786,130.991079 C219.10786,129.347831 218.854321,127.942403 218.344839,126.77766 C217.838724,125.610051 217.17096,124.621046 216.344915,123.807301 L216.344915,123.807301 Z M249.077373,120.663592 L232.949528,120.663592 L232.949528,104.158047 L223.686469,104.158047 L223.686469,143.646143 L232.949528,143.646143 L232.949528,126.95101 L249.077373,126.95101 L249.077373,143.646143 L258.339469,143.646143 L258.339469,104.158047 L249.077373,104.158047 L249.077373,120.663592 L249.077373,120.663592 Z M298.386059,109.551491 C296.588677,107.744921 294.422774,106.321824 291.889313,105.282676 C289.354889,104.244005 286.544796,103.724432 283.45711,103.724432 C280.369423,103.724432 277.555001,104.23923 275.011436,105.269304 C272.468834,106.299379 270.294271,107.717701 268.486786,109.524271 C266.679783,111.331319 265.281712,113.463577 264.292094,115.921048 C263.301513,118.37804 262.807426,121.034171 262.807426,123.88944 C262.807426,126.744709 263.301513,129.400362 264.292094,131.857832 C265.281712,134.314824 266.679783,136.451381 268.486786,138.267502 C270.294752,140.083146 272.468834,141.506244 275.011436,142.53584 C277.555001,143.565915 280.369423,144.081191 283.45711,144.081191 C286.544796,144.081191 289.35537,143.565915 291.889313,142.53584 C294.422774,141.506721 296.588677,140.083146 298.386059,138.267502 C300.184403,136.451381 301.578143,134.314824 302.568243,131.857832 C303.557861,129.400362 304.052911,126.744709 304.052911,123.88944 C304.052911,121.052795 303.557861,118.405738 302.568243,115.94779 C301.578143,113.490798 300.184403,111.359017 298.386059,109.551491 L298.386059,109.551491 Z M293.8647,129.187375 C293.35618,130.749917 292.625392,132.073207 291.670413,133.158199 C290.717839,134.242237 289.550696,135.068398 288.170426,135.637637 C286.790156,136.206876 285.21889,136.491018 283.45711,136.491018 C281.677528,136.491018 280.093273,136.206876 278.703381,135.637637 C277.313489,135.068398 276.142016,134.241759 275.189923,133.158199 C274.235425,132.073207 273.504156,130.749917 272.996598,129.187375 C272.487115,127.624833 272.233577,125.857899 272.233577,123.888962 C272.233577,121.937217 272.487115,120.180312 272.996598,118.616815 C273.504156,117.05475 274.234944,115.730983 275.189923,114.646468 C276.142016,113.56243 277.313489,112.731972 278.703381,112.152704 C280.093273,111.574869 281.677528,111.285474 283.45711,111.285474 C285.21889,111.285474 286.790156,111.574391 288.170426,112.152704 C289.550696,112.731494 290.717839,113.56243 291.670413,114.646468 C292.624911,115.730983 293.35618,117.054273 293.8647,118.616815 C294.372259,120.180312 294.62676,121.937217 294.62676,123.888962 C294.62676,125.858377 294.371778,127.624833 293.8647,129.187375 L293.8647,129.187375 Z M337.507497,111.964072 C336.890248,110.391979 335.930939,109.028097 334.632937,107.871472 C333.334453,106.714847 331.681401,105.807025 329.675223,105.147529 C327.66712,104.488988 325.265479,104.158524 322.468376,104.158524 L308.466022,104.158524 L308.466022,143.646621 L317.674717,143.646621 L317.674717,130.447628 L322.468857,130.447628 C325.211596,130.447628 327.586296,130.118596 329.594398,129.458623 C331.600576,128.800082 333.257959,127.882709 334.566064,126.70746 C335.873207,125.533165 336.844544,124.124872 337.481036,122.479236 C338.116085,120.83551 338.43361,119.028463 338.43361,117.059048 C338.432648,115.233854 338.124745,113.536165 337.507497,111.964072 L337.507497,111.964072 Z M327.64499,121.828813 C326.591866,122.967769 324.865687,123.537008 322.468376,123.537008 L317.674236,123.537008 L317.674236,111.014703 L322.468376,111.014703 C323.631671,111.014703 324.635241,111.159878 325.479087,111.448318 C326.323895,111.737713 327.021968,112.148884 327.576193,112.681829 C328.130417,113.214774 328.544162,113.852303 328.816463,114.592027 C329.088764,115.333184 329.225396,116.155524 329.225396,117.059048 C329.225396,119.10105 328.698113,120.690813 327.64499,121.828813 L327.64499,121.828813 Z M13.1310861,131.082769 C12.4479271,130.427571 11.6382393,129.918503 10.7025039,129.556043 C9.76724957,129.19406 8.75068971,129.013069 7.6528243,129.013069 C6.55543999,129.013069 5.53839903,129.19406 4.60362581,129.556043 C3.66789039,129.918503 2.86012702,130.427571 2.17985459,131.082769 C1.50006325,131.738445 0.967006779,132.527834 0.580204068,133.45046 C0.193882454,134.373086 2.7533531e-14,135.393609 2.7533531e-14,136.51394 C2.7533531e-14,137.634749 0.191476964,138.657183 0.574911991,139.582674 C0.957865919,140.509598 1.49140349,141.301852 2.17504361,141.960393 C2.85820262,142.619889 3.66789039,143.130867 4.60362581,143.49285 C5.53888012,143.854355 6.55543999,144.036301 7.6528243,144.036301 C8.75068971,144.036301 9.76773067,143.854355 10.7025039,143.49285 C11.6382393,143.130867 12.447446,142.619889 13.1310861,141.960393 C13.8147262,141.301375 14.3477827,140.509598 14.7312177,139.582674 C15.1146527,138.657183 15.3061297,137.634749 15.3061297,136.51394 C15.3061297,135.393609 15.1146527,134.373086 14.7312177,133.45046 C14.3477827,132.527834 13.8147262,131.738445 13.1310861,131.082769 L13.1310861,131.082769 Z M12.5619473,138.471416 C12.3204361,139.051639 11.9730834,139.54638 11.5208514,139.952297 C11.0686194,140.359647 10.516319,140.671487 9.86395025,140.890682 C9.21158149,141.108445 8.47453951,141.218281 7.6528243,141.218281 C6.83159018,141.218281 6.0945482,141.108922 5.44217945,140.890682 C4.7893296,140.671487 4.23558591,140.359647 3.7795051,139.952297 C3.32390539,139.54638 2.97559051,139.051639 2.73407937,138.471416 C2.49256822,137.891193 2.37133155,137.238861 2.37133155,136.51394 C2.37133155,135.789498 2.49208712,135.139075 2.73407937,134.561718 C2.97559051,133.984838 3.32438649,133.495349 3.7795051,133.09182 C4.23558591,132.688291 4.7893296,132.379316 5.44217945,132.163941 C6.0940671,131.948566 6.83159018,131.84064 7.6528243,131.84064 C8.47453951,131.84064 9.21158149,131.948566 9.86395025,132.163941 C10.5158379,132.379316 11.0686194,132.688768 11.5208514,133.09182 C11.9730834,133.494872 12.319955,133.984838 12.5619473,134.561718 C12.8029773,135.139075 12.924214,135.789498 12.924214,136.51394 C12.924214,137.238861 12.8029773,137.891193 12.5619473,138.471416 L12.5619473,138.471416 Z M15.1401509,124.411401 L5.94396456,124.411401 C5.76451504,124.411401 5.56630271,124.417132 5.34884645,124.427638 C5.1313902,124.437667 4.91249066,124.453426 4.69118562,124.473483 L14.663864,116.726196 C14.8433135,116.589617 14.9674368,116.449217 15.0367149,116.30643 C15.1055119,116.162688 15.1401509,115.981696 15.1401509,115.762501 L15.1401509,114.338448 L0.165978776,114.338448 L0.165978776,116.767265 L9.26835105,116.767265 C9.46896887,116.767265 9.68450073,116.76249 9.91590882,116.751984 C10.1468358,116.741955 10.383536,116.722376 10.6250471,116.695633 L0.610994333,124.473483 C0.514293655,124.547981 0.436836893,124.616748 0.378624047,124.677874 C0.319930104,124.739956 0.274706901,124.802992 0.243916635,124.867461 C0.212645272,124.933363 0.191958062,125.005951 0.181373908,125.088567 C0.171270852,125.170705 0.165978776,125.272901 0.165978776,125.396109 L0.165978776,126.840219 L15.1401509,126.840219 L15.1401509,124.411401 L15.1401509,124.411401 Z M15.1401509,102 L12.9136298,102 L12.9136298,108.568694 L8.67852502,108.568694 L8.67852502,103.39349 L6.53475278,103.39349 L6.53475278,108.568694 L2.3823968,108.568694 L2.3823968,102 L0.166459873,102 L0.166459873,111.345645 L15.140632,111.345645 L15.140632,102 L15.1401509,102 Z" id="Shape" sketch:type="MSShapeGroup"></path>
            </g>
        </g>
    </g>
</svg>